<mxfile host="65bd71144e">
    <diagram id="eE0MNt-LQb6da-aH8tTl" name="Page-1">
        <mxGraphModel dx="776" dy="577" grid="1" gridSize="10" guides="1" tooltips="1" connect="1" arrows="1" fold="1" page="1" pageScale="1" pageWidth="850" pageHeight="1100" math="0" shadow="0">
            <root>
                <mxCell id="0"/>
                <mxCell id="1" parent="0"/>
                <mxCell id="2" value="" style="rounded=0;whiteSpace=wrap;html=1;shadow=1;fillColor=#FFFFFF;" vertex="1" parent="1">
                    <mxGeometry x="95" width="680" height="780" as="geometry"/>
                </mxCell>
                <mxCell id="3" value="t" style="rounded=0;whiteSpace=wrap;html=1;shadow=0;fillColor=#FFFFFF;strokeColor=#1A1A1A;" vertex="1" parent="1">
                    <mxGeometry x="150" y="40" width="570" height="60" as="geometry"/>
                </mxCell>
                <mxCell id="4" value="" style="rounded=0;whiteSpace=wrap;html=1;shadow=0;strokeColor=#1A1A1A;fillColor=#FFFFFF;" vertex="1" parent="1">
                    <mxGeometry x="170" y="60" width="110" height="20" as="geometry"/>
                </mxCell>
                <mxCell id="5" value="&lt;font color=&quot;#000000&quot;&gt;Card Name&lt;/font&gt;" style="text;html=1;resizable=0;autosize=1;align=center;verticalAlign=middle;points=[];fillColor=none;strokeColor=none;rounded=0;shadow=0;" vertex="1" parent="1">
                    <mxGeometry x="161" y="42" width="80" height="20" as="geometry"/>
                </mxCell>
                <mxCell id="7" value="" style="rounded=0;whiteSpace=wrap;html=1;shadow=0;strokeColor=#1A1A1A;fillColor=#FFFFFF;" vertex="1" parent="1">
                    <mxGeometry x="299" y="60" width="110" height="20" as="geometry"/>
                </mxCell>
                <mxCell id="8" value="&lt;font color=&quot;#000000&quot;&gt;Rarity&lt;/font&gt;" style="text;html=1;resizable=0;autosize=1;align=center;verticalAlign=middle;points=[];fillColor=none;strokeColor=none;rounded=0;shadow=0;" vertex="1" parent="1">
                    <mxGeometry x="300" y="42" width="50" height="20" as="geometry"/>
                </mxCell>
                <mxCell id="9" value="" style="rounded=0;whiteSpace=wrap;html=1;shadow=0;strokeColor=#1A1A1A;fillColor=#FFFFFF;" vertex="1" parent="1">
                    <mxGeometry x="434" y="60" width="110" height="20" as="geometry"/>
                </mxCell>
                <mxCell id="10" value="&lt;font color=&quot;#000000&quot;&gt;Sets&lt;/font&gt;" style="text;html=1;resizable=0;autosize=1;align=center;verticalAlign=middle;points=[];fillColor=none;strokeColor=none;rounded=0;shadow=0;" vertex="1" parent="1">
                    <mxGeometry x="434" y="42" width="40" height="20" as="geometry"/>
                </mxCell>
                <mxCell id="11" value="&lt;font color=&quot;#ffffff&quot;&gt;Search&lt;/font&gt;" style="rounded=1;whiteSpace=wrap;html=1;shadow=0;fontColor=#000000;strokeColor=#FFFFFF;fillColor=#007FFF;" vertex="1" parent="1">
                    <mxGeometry x="580" y="55" width="120" height="30" as="geometry"/>
                </mxCell>
                <mxCell id="13" value="&lt;font color=&quot;#000000&quot;&gt;MGT Deck Build&lt;/font&gt;" style="text;html=1;resizable=0;autosize=1;align=left;verticalAlign=middle;points=[];fillColor=none;strokeColor=none;rounded=0;shadow=0;" vertex="1" parent="1">
                    <mxGeometry x="150" width="100" height="20" as="geometry"/>
                </mxCell>
                <mxCell id="14" value="&lt;font color=&quot;#000000&quot;&gt;Search&lt;/font&gt;" style="text;html=1;resizable=0;autosize=1;align=right;verticalAlign=middle;points=[];fillColor=none;strokeColor=none;rounded=0;shadow=0;" vertex="1" parent="1">
                    <mxGeometry x="600" width="50" height="20" as="geometry"/>
                </mxCell>
                <mxCell id="15" value="&lt;font color=&quot;#000000&quot;&gt;My Deck&lt;/font&gt;" style="text;html=1;resizable=0;autosize=1;align=right;verticalAlign=middle;points=[];fillColor=none;strokeColor=none;rounded=0;shadow=0;" vertex="1" parent="1">
                    <mxGeometry x="660" width="60" height="20" as="geometry"/>
                </mxCell>
                <mxCell id="21" value="" style="group" vertex="1" connectable="0" parent="1">
                    <mxGeometry x="150" y="130" width="120" height="90" as="geometry"/>
                </mxCell>
                <mxCell id="17" value="" style="rounded=1;whiteSpace=wrap;html=1;shadow=0;fontColor=#FFFFFF;strokeColor=#FFFFFF;fillColor=#E6E6E6;" vertex="1" parent="21">
                    <mxGeometry width="120" height="90" as="geometry"/>
                </mxCell>
                <mxCell id="18" value="" style="rounded=0;whiteSpace=wrap;html=1;shadow=0;fontColor=#FFFFFF;strokeColor=#FFFFFF;fillColor=#666666;" vertex="1" parent="21">
                    <mxGeometry width="120" height="60" as="geometry"/>
                </mxCell>
                <mxCell id="19" value="&lt;font color=&quot;#000000&quot;&gt;Card Title&lt;/font&gt;" style="text;html=1;resizable=0;autosize=1;align=left;verticalAlign=middle;points=[];fillColor=none;strokeColor=none;rounded=0;shadow=0;" vertex="1" parent="21">
                    <mxGeometry x="9" y="60" width="70" height="20" as="geometry"/>
                </mxCell>
                <mxCell id="20" value="" style="ellipse;whiteSpace=wrap;html=1;aspect=fixed;shadow=0;fontColor=#FFFFFF;strokeColor=#FFFFFF;fillColor=#00FFFF;" vertex="1" parent="21">
                    <mxGeometry x="95" y="4" width="20" height="20" as="geometry"/>
                </mxCell>
                <mxCell id="22" value="" style="group" vertex="1" connectable="0" parent="1">
                    <mxGeometry x="300" y="130" width="120" height="90" as="geometry"/>
                </mxCell>
                <mxCell id="23" value="" style="rounded=1;whiteSpace=wrap;html=1;shadow=0;fontColor=#FFFFFF;strokeColor=#FFFFFF;fillColor=#E6E6E6;" vertex="1" parent="22">
                    <mxGeometry width="120" height="90" as="geometry"/>
                </mxCell>
                <mxCell id="24" value="" style="rounded=0;whiteSpace=wrap;html=1;shadow=0;fontColor=#FFFFFF;strokeColor=#FFFFFF;fillColor=#666666;" vertex="1" parent="22">
                    <mxGeometry width="120" height="60" as="geometry"/>
                </mxCell>
                <mxCell id="25" value="&lt;font color=&quot;#000000&quot;&gt;Card Title&lt;/font&gt;" style="text;html=1;resizable=0;autosize=1;align=left;verticalAlign=middle;points=[];fillColor=none;strokeColor=none;rounded=0;shadow=0;" vertex="1" parent="22">
                    <mxGeometry x="9" y="60" width="70" height="20" as="geometry"/>
                </mxCell>
                <mxCell id="26" value="" style="ellipse;whiteSpace=wrap;html=1;aspect=fixed;shadow=0;fontColor=#FFFFFF;strokeColor=#FFFFFF;fillColor=#00FFFF;" vertex="1" parent="22">
                    <mxGeometry x="95" y="4" width="20" height="20" as="geometry"/>
                </mxCell>
                <mxCell id="27" value="" style="group" vertex="1" connectable="0" parent="1">
                    <mxGeometry x="600" y="130" width="120" height="90" as="geometry"/>
                </mxCell>
                <mxCell id="28" value="" style="rounded=1;whiteSpace=wrap;html=1;shadow=0;fontColor=#FFFFFF;strokeColor=#FFFFFF;fillColor=#E6E6E6;" vertex="1" parent="27">
                    <mxGeometry width="120" height="90" as="geometry"/>
                </mxCell>
                <mxCell id="29" value="" style="rounded=0;whiteSpace=wrap;html=1;shadow=0;fontColor=#FFFFFF;strokeColor=#FFFFFF;fillColor=#666666;" vertex="1" parent="27">
                    <mxGeometry width="120" height="60" as="geometry"/>
                </mxCell>
                <mxCell id="30" value="&lt;font color=&quot;#000000&quot;&gt;Card Title&lt;/font&gt;" style="text;html=1;resizable=0;autosize=1;align=left;verticalAlign=middle;points=[];fillColor=none;strokeColor=none;rounded=0;shadow=0;" vertex="1" parent="27">
                    <mxGeometry x="9" y="60" width="70" height="20" as="geometry"/>
                </mxCell>
                <mxCell id="31" value="" style="ellipse;whiteSpace=wrap;html=1;aspect=fixed;shadow=0;fontColor=#FFFFFF;strokeColor=#FFFFFF;fillColor=#00FFFF;" vertex="1" parent="27">
                    <mxGeometry x="95" y="4" width="20" height="20" as="geometry"/>
                </mxCell>
                <mxCell id="32" value="" style="group" vertex="1" connectable="0" parent="1">
                    <mxGeometry x="450" y="130" width="120" height="90" as="geometry"/>
                </mxCell>
                <mxCell id="33" value="" style="rounded=1;whiteSpace=wrap;html=1;shadow=0;fontColor=#FFFFFF;strokeColor=#FFFFFF;fillColor=#E6E6E6;" vertex="1" parent="32">
                    <mxGeometry width="120" height="90" as="geometry"/>
                </mxCell>
                <mxCell id="34" value="" style="rounded=0;whiteSpace=wrap;html=1;shadow=0;fontColor=#FFFFFF;strokeColor=#FFFFFF;fillColor=#666666;" vertex="1" parent="32">
                    <mxGeometry width="120" height="60" as="geometry"/>
                </mxCell>
                <mxCell id="35" value="&lt;font color=&quot;#000000&quot;&gt;Card Title&lt;/font&gt;" style="text;html=1;resizable=0;autosize=1;align=left;verticalAlign=middle;points=[];fillColor=none;strokeColor=none;rounded=0;shadow=0;" vertex="1" parent="32">
                    <mxGeometry x="9" y="60" width="70" height="20" as="geometry"/>
                </mxCell>
                <mxCell id="36" value="" style="ellipse;whiteSpace=wrap;html=1;aspect=fixed;shadow=0;fontColor=#FFFFFF;strokeColor=#FFFFFF;fillColor=#00FFFF;" vertex="1" parent="32">
                    <mxGeometry x="95" y="4" width="20" height="20" as="geometry"/>
                </mxCell>
                <mxCell id="58" value="" style="group" vertex="1" connectable="0" parent="1">
                    <mxGeometry x="150" y="260" width="120" height="90" as="geometry"/>
                </mxCell>
                <mxCell id="59" value="" style="rounded=1;whiteSpace=wrap;html=1;shadow=0;fontColor=#FFFFFF;strokeColor=#FFFFFF;fillColor=#E6E6E6;" vertex="1" parent="58">
                    <mxGeometry width="120" height="90" as="geometry"/>
                </mxCell>
                <mxCell id="60" value="" style="rounded=0;whiteSpace=wrap;html=1;shadow=0;fontColor=#FFFFFF;strokeColor=#FFFFFF;fillColor=#666666;" vertex="1" parent="58">
                    <mxGeometry width="120" height="60" as="geometry"/>
                </mxCell>
                <mxCell id="98" value="" style="edgeStyle=none;html=1;fontColor=#FFFFFF;" edge="1" parent="58" source="61" target="60">
                    <mxGeometry relative="1" as="geometry"/>
                </mxCell>
                <mxCell id="61" value="&lt;font color=&quot;#000000&quot;&gt;Card Title&lt;/font&gt;" style="text;html=1;resizable=0;autosize=1;align=left;verticalAlign=middle;points=[];fillColor=none;strokeColor=none;rounded=0;shadow=0;" vertex="1" parent="58">
                    <mxGeometry x="9" y="60" width="70" height="20" as="geometry"/>
                </mxCell>
                <mxCell id="62" value="" style="ellipse;whiteSpace=wrap;html=1;aspect=fixed;shadow=0;fontColor=#FFFFFF;strokeColor=#FFFFFF;fillColor=#00FFFF;" vertex="1" parent="58">
                    <mxGeometry x="95" y="4" width="20" height="20" as="geometry"/>
                </mxCell>
                <mxCell id="63" value="" style="group" vertex="1" connectable="0" parent="1">
                    <mxGeometry x="300" y="260" width="120" height="90" as="geometry"/>
                </mxCell>
                <mxCell id="64" value="" style="rounded=1;whiteSpace=wrap;html=1;shadow=0;fontColor=#FFFFFF;strokeColor=#FFFFFF;fillColor=#E6E6E6;" vertex="1" parent="63">
                    <mxGeometry width="120" height="90" as="geometry"/>
                </mxCell>
                <mxCell id="65" value="" style="rounded=0;whiteSpace=wrap;html=1;shadow=0;fontColor=#FFFFFF;strokeColor=#FFFFFF;fillColor=#666666;" vertex="1" parent="63">
                    <mxGeometry width="120" height="60" as="geometry"/>
                </mxCell>
                <mxCell id="66" value="&lt;font color=&quot;#000000&quot;&gt;Card Title&lt;/font&gt;" style="text;html=1;resizable=0;autosize=1;align=left;verticalAlign=middle;points=[];fillColor=none;strokeColor=none;rounded=0;shadow=0;" vertex="1" parent="63">
                    <mxGeometry x="9" y="60" width="70" height="20" as="geometry"/>
                </mxCell>
                <mxCell id="67" value="" style="ellipse;whiteSpace=wrap;html=1;aspect=fixed;shadow=0;fontColor=#FFFFFF;strokeColor=#FFFFFF;fillColor=#00FFFF;" vertex="1" parent="63">
                    <mxGeometry x="95" y="4" width="20" height="20" as="geometry"/>
                </mxCell>
                <mxCell id="68" value="" style="group" vertex="1" connectable="0" parent="1">
                    <mxGeometry x="600" y="260" width="120" height="90" as="geometry"/>
                </mxCell>
                <mxCell id="69" value="" style="rounded=1;whiteSpace=wrap;html=1;shadow=0;fontColor=#FFFFFF;strokeColor=#FFFFFF;fillColor=#E6E6E6;" vertex="1" parent="68">
                    <mxGeometry width="120" height="90" as="geometry"/>
                </mxCell>
                <mxCell id="70" value="" style="rounded=0;whiteSpace=wrap;html=1;shadow=0;fontColor=#FFFFFF;strokeColor=#FFFFFF;fillColor=#666666;" vertex="1" parent="68">
                    <mxGeometry width="120" height="60" as="geometry"/>
                </mxCell>
                <mxCell id="71" value="&lt;font color=&quot;#000000&quot;&gt;Card Title&lt;/font&gt;" style="text;html=1;resizable=0;autosize=1;align=left;verticalAlign=middle;points=[];fillColor=none;strokeColor=none;rounded=0;shadow=0;" vertex="1" parent="68">
                    <mxGeometry x="9" y="60" width="70" height="20" as="geometry"/>
                </mxCell>
                <mxCell id="72" value="" style="ellipse;whiteSpace=wrap;html=1;aspect=fixed;shadow=0;fontColor=#FFFFFF;strokeColor=#FFFFFF;fillColor=#00FFFF;" vertex="1" parent="68">
                    <mxGeometry x="95" y="4" width="20" height="20" as="geometry"/>
                </mxCell>
                <mxCell id="73" value="" style="group" vertex="1" connectable="0" parent="1">
                    <mxGeometry x="450" y="260" width="120" height="90" as="geometry"/>
                </mxCell>
                <mxCell id="74" value="" style="rounded=1;whiteSpace=wrap;html=1;shadow=0;fontColor=#FFFFFF;strokeColor=#FFFFFF;fillColor=#E6E6E6;" vertex="1" parent="73">
                    <mxGeometry width="120" height="90" as="geometry"/>
                </mxCell>
                <mxCell id="75" value="" style="rounded=0;whiteSpace=wrap;html=1;shadow=0;fontColor=#FFFFFF;strokeColor=#FFFFFF;fillColor=#666666;" vertex="1" parent="73">
                    <mxGeometry width="120" height="60" as="geometry"/>
                </mxCell>
                <mxCell id="76" value="&lt;font color=&quot;#000000&quot;&gt;Card Title&lt;/font&gt;" style="text;html=1;resizable=0;autosize=1;align=left;verticalAlign=middle;points=[];fillColor=none;strokeColor=none;rounded=0;shadow=0;" vertex="1" parent="73">
                    <mxGeometry x="9" y="60" width="70" height="20" as="geometry"/>
                </mxCell>
                <mxCell id="77" value="" style="ellipse;whiteSpace=wrap;html=1;aspect=fixed;shadow=0;fontColor=#FFFFFF;strokeColor=#FFFFFF;fillColor=#00FFFF;" vertex="1" parent="73">
                    <mxGeometry x="95" y="4" width="20" height="20" as="geometry"/>
                </mxCell>
                <mxCell id="78" value="" style="group" vertex="1" connectable="0" parent="1">
                    <mxGeometry x="150" y="390" width="120" height="90" as="geometry"/>
                </mxCell>
                <mxCell id="79" value="" style="rounded=1;whiteSpace=wrap;html=1;shadow=0;fontColor=#FFFFFF;strokeColor=#FFFFFF;fillColor=#E6E6E6;" vertex="1" parent="78">
                    <mxGeometry width="120" height="90" as="geometry"/>
                </mxCell>
                <mxCell id="80" value="" style="rounded=0;whiteSpace=wrap;html=1;shadow=0;fontColor=#FFFFFF;strokeColor=#FFFFFF;fillColor=#666666;" vertex="1" parent="78">
                    <mxGeometry width="120" height="60" as="geometry"/>
                </mxCell>
                <mxCell id="81" value="&lt;font color=&quot;#000000&quot;&gt;Card Title&lt;/font&gt;" style="text;html=1;resizable=0;autosize=1;align=left;verticalAlign=middle;points=[];fillColor=none;strokeColor=none;rounded=0;shadow=0;" vertex="1" parent="78">
                    <mxGeometry x="9" y="60" width="70" height="20" as="geometry"/>
                </mxCell>
                <mxCell id="82" value="" style="ellipse;whiteSpace=wrap;html=1;aspect=fixed;shadow=0;fontColor=#FFFFFF;strokeColor=#FFFFFF;fillColor=#00FFFF;" vertex="1" parent="78">
                    <mxGeometry x="95" y="4" width="20" height="20" as="geometry"/>
                </mxCell>
                <mxCell id="83" value="" style="group" vertex="1" connectable="0" parent="1">
                    <mxGeometry x="300" y="390" width="120" height="90" as="geometry"/>
                </mxCell>
                <mxCell id="84" value="" style="rounded=1;whiteSpace=wrap;html=1;shadow=0;fontColor=#FFFFFF;strokeColor=#FFFFFF;fillColor=#E6E6E6;" vertex="1" parent="83">
                    <mxGeometry width="120" height="90" as="geometry"/>
                </mxCell>
                <mxCell id="85" value="" style="rounded=0;whiteSpace=wrap;html=1;shadow=0;fontColor=#FFFFFF;strokeColor=#FFFFFF;fillColor=#666666;" vertex="1" parent="83">
                    <mxGeometry width="120" height="60" as="geometry"/>
                </mxCell>
                <mxCell id="86" value="&lt;font color=&quot;#000000&quot;&gt;Card Title&lt;/font&gt;" style="text;html=1;resizable=0;autosize=1;align=left;verticalAlign=middle;points=[];fillColor=none;strokeColor=none;rounded=0;shadow=0;" vertex="1" parent="83">
                    <mxGeometry x="9" y="60" width="70" height="20" as="geometry"/>
                </mxCell>
                <mxCell id="87" value="" style="ellipse;whiteSpace=wrap;html=1;aspect=fixed;shadow=0;fontColor=#FFFFFF;strokeColor=#FFFFFF;fillColor=#00FFFF;" vertex="1" parent="83">
                    <mxGeometry x="95" y="4" width="20" height="20" as="geometry"/>
                </mxCell>
                <mxCell id="88" value="" style="group" vertex="1" connectable="0" parent="1">
                    <mxGeometry x="600" y="390" width="120" height="90" as="geometry"/>
                </mxCell>
                <mxCell id="89" value="" style="rounded=1;whiteSpace=wrap;html=1;shadow=0;fontColor=#FFFFFF;strokeColor=#FFFFFF;fillColor=#E6E6E6;" vertex="1" parent="88">
                    <mxGeometry width="120" height="90" as="geometry"/>
                </mxCell>
                <mxCell id="90" value="" style="rounded=0;whiteSpace=wrap;html=1;shadow=0;fontColor=#FFFFFF;strokeColor=#FFFFFF;fillColor=#666666;" vertex="1" parent="88">
                    <mxGeometry width="120" height="60" as="geometry"/>
                </mxCell>
                <mxCell id="91" value="&lt;font color=&quot;#000000&quot;&gt;Card Title&lt;/font&gt;" style="text;html=1;resizable=0;autosize=1;align=left;verticalAlign=middle;points=[];fillColor=none;strokeColor=none;rounded=0;shadow=0;" vertex="1" parent="88">
                    <mxGeometry x="9" y="60" width="70" height="20" as="geometry"/>
                </mxCell>
                <mxCell id="92" value="" style="ellipse;whiteSpace=wrap;html=1;aspect=fixed;shadow=0;fontColor=#FFFFFF;strokeColor=#FFFFFF;fillColor=#00FFFF;" vertex="1" parent="88">
                    <mxGeometry x="95" y="4" width="20" height="20" as="geometry"/>
                </mxCell>
                <mxCell id="93" value="" style="group" vertex="1" connectable="0" parent="1">
                    <mxGeometry x="450" y="390" width="120" height="90" as="geometry"/>
                </mxCell>
                <mxCell id="94" value="" style="rounded=1;whiteSpace=wrap;html=1;shadow=0;fontColor=#FFFFFF;strokeColor=#FFFFFF;fillColor=#E6E6E6;" vertex="1" parent="93">
                    <mxGeometry width="120" height="90" as="geometry"/>
                </mxCell>
                <mxCell id="95" value="" style="rounded=0;whiteSpace=wrap;html=1;shadow=0;fontColor=#FFFFFF;strokeColor=#FFFFFF;fillColor=#666666;" vertex="1" parent="93">
                    <mxGeometry width="120" height="60" as="geometry"/>
                </mxCell>
                <mxCell id="96" value="&lt;font color=&quot;#000000&quot;&gt;Card Title&lt;/font&gt;" style="text;html=1;resizable=0;autosize=1;align=left;verticalAlign=middle;points=[];fillColor=none;strokeColor=none;rounded=0;shadow=0;" vertex="1" parent="93">
                    <mxGeometry x="9" y="60" width="70" height="20" as="geometry"/>
                </mxCell>
                <mxCell id="97" value="" style="ellipse;whiteSpace=wrap;html=1;aspect=fixed;shadow=0;fontColor=#FFFFFF;strokeColor=#FFFFFF;fillColor=#00FFFF;" vertex="1" parent="93">
                    <mxGeometry x="95" y="4" width="20" height="20" as="geometry"/>
                </mxCell>
            </root>
        </mxGraphModel>
    </diagram>
</mxfile>